<svg id="Layer_1" data-name="Layer 1" xmlns="http://www.w3.org/2000/svg" viewBox="0 0 1366 768">
  <defs>
    <style>
      .cls-1 {
        fill: none;
      }

      .cls-1, .cls-3 {
        stroke: #000;
        stroke-miterlimit: 10;
      }

      .cls-2, .cls-3 {
        fill: #fff;
      }
    </style>
  </defs>
  <title>halloween_scene-01</title>
  <g id="sun">
    <ellipse class="cls-1" cx="925.5" cy="174.5" rx="57" ry="67"/>
    <line class="cls-1" x1="868.5" y1="169.5" x2="831.5" y2="169.5"/>
    <line class="cls-1" x1="880.5" y1="135.5" x2="845.5" y2="122.5"/>
    <line class="cls-1" x1="925.5" y1="107.5" x2="921.5" y2="86.5"/>
    <line class="cls-1" x1="962.5" y1="126.5" x2="979.5" y2="105.5"/>
    <line class="cls-1" x1="978.5" y1="152.5" x2="1005.5" y2="142.5"/>
    <line class="cls-1" x1="982.5" y1="183.5" x2="1015.5" y2="183.5"/>
    <line class="cls-1" x1="968.5" y1="218.5" x2="999.5" y2="226.5"/>
    <line class="cls-1" x1="930.5" y1="241.5" x2="935.5" y2="264.5"/>
    <line class="cls-1" x1="893.5" y1="229.5" x2="868.5" y2="241.5"/>
    <line class="cls-1" x1="872.5" y1="199.5" x2="835.5" y2="209.5"/>
    <line class="cls-1" x1="900.5" y1="116.5" x2="876.5" y2="91.5"/>
    <line class="cls-1" x1="971.5" y1="257.5" x2="956.5" y2="230.5"/>
  </g>
  <g id="clouds">
    <g id="cloud1">
      <path class="cls-1" d="M252.5,210.5c0-12.7-16.3-23-36.5-23a57.4,57.4,0,0,0-13.5,1.6v-1.6c0-18.8-16.6-34-37-34a38.6,38.6,0,0,0-27.6,11.3,33,33,0,0,0-46.6,22.5,50.5,50.5,0,0,0-8.8-.8c-19.3,0-35,10.7-35,24s15.7,24,35,24a53.8,53.8,0,0,0,10-1h131V233C240.1,230.8,252.5,221.6,252.5,210.5Z"/>
    </g>
    <g id="cloud2">
      <path class="cls-1" d="M483.5,162.5c0-12.7-16.3-23-36.5-23a57.4,57.4,0,0,0-13.5,1.6v-1.6c0-18.8-16.6-34-37-34a38.6,38.6,0,0,0-27.6,11.3,33,33,0,0,0-46.6,22.5,50.5,50.5,0,0,0-8.8-.8c-19.3,0-35,10.7-35,24s15.7,24,35,24a53.8,53.8,0,0,0,10-1h131V185C471.1,182.8,483.5,173.6,483.5,162.5Z"/>
    </g>
    <g id="cloud3">
      <path class="cls-1" d="M819.5,152.5c0-12.7-16.3-23-36.5-23a57.4,57.4,0,0,0-13.5,1.6v-1.6c0-18.8-16.6-34-37-34a38.6,38.6,0,0,0-27.6,11.3,33,33,0,0,0-46.6,22.5,50.5,50.5,0,0,0-8.8-.8c-19.3,0-35,10.7-35,24s15.7,24,35,24a53.8,53.8,0,0,0,10-1h131V175C807.1,172.8,819.5,163.6,819.5,152.5Z"/>
    </g>
  </g>
  <g id="house">
    <g id="base">
      <rect class="cls-2" x="374.5" y="285.5" width="399" height="216"/>
      <path d="M773,286V501H375V286H773m1-1H374V502H774V285Z"/>
    </g>
    <g id="roof">
      <line class="cls-1" x1="374.5" y1="285.5" x2="573.5" y2="146.5"/>
      <line class="cls-1" x1="773.5" y1="285.5" x2="573.5" y2="146.5"/>
    </g>
    <g id="windows">
      <rect id="window2" class="cls-3" x="437.5" y="344.5" width="73" height="49"/>
      <rect id="window1" class="cls-3" x="637.5" y="344.5" width="73" height="49"/>
      <line class="cls-1" x1="473.5" y1="344.5" x2="473.5" y2="396.5"/>
      <line class="cls-1" x1="437.5" y1="369.5" x2="510.5" y2="369.5"/>
      <line class="cls-1" x1="673.5" y1="344.5" x2="673.5" y2="393.5"/>
      <line class="cls-1" x1="637.5" y1="370.5" x2="710.5" y2="370.5"/>
    </g>
    <rect id="door" class="cls-3" x="549.5" y="396.5" width="50" height="106"/>
    <circle id="door_handle" class="cls-3" cx="592.5" cy="452.5" r="3"/>
  </g>
  <g id="ghosts">
    <g id="ghost2">
      <path class="cls-1" d="M297,401.7c-.7-28.8-12.3-51.7-26.6-51.7s-26,22.9-26.6,51.7h-.1v56.8H297V401.7Z"/>
      <ellipse class="cls-1" cx="258.9" cy="385.6" rx="7.1" ry="4"/>
      <ellipse class="cls-1" cx="279.5" cy="385.6" rx="6.1" ry="4"/>
      <ellipse class="cls-1" cx="270.7" cy="428.7" rx="8.8" ry="11.9"/>
      <line class="cls-1" x1="253.9" y1="458.5" x2="249.1" y2="491.5"/>
      <line class="cls-1" x1="279.5" y1="458.5" x2="285.5" y2="490.1"/>
      <line class="cls-1" x1="297" y1="420.4" x2="326" y2="394.5"/>
      <line class="cls-1" x1="243.7" y1="416.8" x2="221.5" y2="389.5"/>
    </g>
    <g id="ghost1">
      <path class="cls-1" d="M892,417.8c-.7-27.2-13.1-48.8-28.3-48.8s-27.7,21.6-28.4,48.8h-.1v53.5h56.9V417.8Z"/>
      <ellipse class="cls-1" cx="851.4" cy="402.5" rx="7.6" ry="3.7"/>
      <ellipse class="cls-1" cx="873.4" cy="402.5" rx="6.5" ry="3.7"/>
      <ellipse class="cls-1" cx="864" cy="443.2" rx="9.4" ry="11.2"/>
      <line class="cls-1" x1="846" y1="471.3" x2="841" y2="502.5"/>
      <line class="cls-1" x1="873.4" y1="471.3" x2="879.8" y2="501.1"/>
      <line class="cls-1" x1="892.1" y1="435.4" x2="923" y2="411"/>
      <line class="cls-1" x1="835.2" y1="432" x2="811.5" y2="406.3"/>
    </g>
    <g id="ghost3">
      <path class="cls-1" d="M700.4,359.8c-.2-7.1-4-12.8-8.8-12.8s-8.5,5.7-8.7,12.8h-.1v14h17.6v-14Z"/>
      <ellipse class="cls-1" cx="687.9" cy="355.8" rx="2.3" ry="1"/>
      <ellipse class="cls-1" cx="694.6" cy="355.8" rx="2" ry="1"/>
      <ellipse class="cls-1" cx="691.7" cy="366.5" rx="2.9" ry="2.9"/>
      <line class="cls-1" x1="686.2" y1="373.8" x2="684.6" y2="382"/>
      <line class="cls-1" x1="694.6" y1="373.8" x2="696.6" y2="381.6"/>
      <line class="cls-1" x1="700.4" y1="364.4" x2="710" y2="358"/>
      <line class="cls-1" x1="682.8" y1="363.5" x2="675.5" y2="356.8"/>
    </g>
  </g>
  <g id="pumpkins">
    <g id="pumpkin2">
      <path id="mouth2" class="cls-1" d="M303.2,535.1c.3,8,12.5,14.4,27.5,14.4s27.3-6.4,27.5-14.4Z"/>
      <g id="eyes2">
        <path class="cls-1" d="M336.1,520.6a41.2,41.2,0,0,0-4.5,4.8h20A37.3,37.3,0,0,0,336.1,520.6Z"/>
        <path class="cls-1" d="M324.9,520.6a37.3,37.3,0,0,0-15.1,4.8h15.9A5.7,5.7,0,0,1,324.9,520.6Z"/>
      </g>
      <ellipse class="cls-1" cx="331.5" cy="532" rx="38.5" ry="37"/>
    </g>
    <g id="pumpkin1">
      <path id="mouth1" class="cls-1" d="M789.2,547.1c.3,8,12.5,14.4,27.5,14.4s27.3-6.4,27.5-14.4Z"/>
      <g id="eyes1">
        <path class="cls-1" d="M822.1,532.6a41.2,41.2,0,0,0-4.5,4.8h20A37.3,37.3,0,0,0,822.1,532.6Z"/>
        <path class="cls-1" d="M810.9,532.6a37.3,37.3,0,0,0-15.1,4.8h15.9A5.7,5.7,0,0,1,810.9,532.6Z"/>
      </g>
      <ellipse class="cls-1" cx="817.5" cy="544" rx="38.5" ry="37"/>
    </g>
  </g>
  <g id="person">
    <ellipse class="cls-3" cx="464.8" cy="446.2" rx="22.7" ry="21.2"/>
    <line class="cls-1" x1="464.4" y1="538.1" x2="464.4" y2="467.4"/>
    <line class="cls-1" x1="432.5" y1="575.5" x2="464.4" y2="538.1"/>
    <line class="cls-1" x1="483.7" y1="580.5" x2="464.4" y2="538.1"/>
    <line class="cls-1" x1="464.4" y1="503.2" x2="502" y2="488.2"/>
    <line class="cls-1" x1="435.4" y1="489" x2="466.3" y2="503.2"/>
    <ellipse class="cls-1" cx="455.7" cy="435" rx="4.8" ry="1.7"/>
    <ellipse class="cls-1" cx="469.2" cy="435" rx="4.8" ry="1.7"/>
    <ellipse class="cls-1" cx="462.4" cy="444.1" rx="1.9" ry="2.5"/>
    <path id="smile" class="cls-1" d="M453.5,451.9c1.8,3,3.8,6.1,7.3,7.7a10.6,10.6,0,0,0,9.8-.3c2.8-1.7,4.2-5.1,3.1-7.9"/>
  </g>
</svg>
